<?xml version="1.0" encoding="utf-8"?>
<!-- Generator: Adobe Illustrator 24.1.0, SVG Export Plug-In . SVG Version: 6.00 Build 0)  -->
<!DOCTYPE svg PUBLIC "-//W3C//DTD SVG 1.1//EN" "http://www.w3.org/Graphics/SVG/1.1/DTD/svg11.dtd" [
	<!ENTITY ns_extend "http://ns.adobe.com/Extensibility/1.0/">
	<!ENTITY ns_ai "http://ns.adobe.com/AdobeIllustrator/10.0/">
	<!ENTITY ns_graphs "http://ns.adobe.com/Graphs/1.0/">
	<!ENTITY ns_vars "http://ns.adobe.com/Variables/1.0/">
	<!ENTITY ns_imrep "http://ns.adobe.com/ImageReplacement/1.0/">
	<!ENTITY ns_sfw "http://ns.adobe.com/SaveForWeb/1.0/">
	<!ENTITY ns_custom "http://ns.adobe.com/GenericCustomNamespace/1.0/">
	<!ENTITY ns_adobe_xpath "http://ns.adobe.com/XPath/1.0/">
]>
<svg version="1.1" id="Layer_1" xmlns:x="&ns_extend;" xmlns:i="&ns_ai;" xmlns:graph="&ns_graphs;"
	 xmlns="http://www.w3.org/2000/svg" xmlns:xlink="http://www.w3.org/1999/xlink" x="0px" y="0px" viewBox="0 0 610.3 36.2"
	 style="enable-background:new 0 0 610.3 36.2;" xml:space="preserve">
<style type="text/css">
	.st0{fill:#FFFFFF;}
</style>
<metadata>
	<sfw  xmlns="&ns_sfw;">
		<slices></slices>
		<sliceSourceBounds  bottomLeftOrigin="true" height="219.9" width="610.3" x="-5393.6" y="598.1"></sliceSourceBounds>
	</sfw>
</metadata>
<g id="New_Symbol">
</g>
<path class="st0" d="M603.6,6.5c-4.7,0-8.2-1.5-12-3.2c-1.9-0.8-3.8-1.6-5.9-2.3c-2.1-0.6-4.4-1.1-6.9-1.1s-4.8,0.4-6.9,1.1
	c-2.1,0.6-4,1.4-5.9,2.3c-3.8,1.6-7.4,3.2-12,3.2s-8.2-1.5-12-3.2c-1.9-0.8-3.8-1.6-5.9-2.3C533.8,0.4,531.5,0,529,0
	s-4.8,0.4-6.9,1.1c-2.1,0.6-4,1.4-5.9,2.3c-3.8,1.6-7.4,3.2-12,3.2s-8.2-1.5-12-3.2c-1.9-0.8-3.8-1.6-5.9-2.3
	C484,0.4,481.8,0,479.2,0s-4.8,0.4-6.9,1.1c-2.1,0.6-4,1.4-5.9,2.3c-2,0.9-4,1.7-6.1,2.3c-0.4,0.1-0.8,0.2-1.3,0.3
	c-0.1,0-0.3,0.1-0.4,0.1c-0.4,0.1-0.7,0.1-1.1,0.2c-0.2,0-0.5,0.1-0.7,0.1c-0.3,0-0.6,0.1-0.9,0.1c-0.5,0-1.1,0.1-1.6,0.1
	s-1.1,0-1.6-0.1c-0.3,0-0.6-0.1-0.9-0.1c-0.2,0-0.5,0-0.7-0.1c-0.4-0.1-0.7-0.1-1.1-0.2C450,6,449.8,6,449.7,6
	c-0.4-0.1-0.8-0.2-1.3-0.3c-2.1-0.6-4.1-1.4-6.1-2.3c-1.9-0.8-3.8-1.6-5.9-2.3C434.3,0.4,432,0,429.5,0c-2.5,0-4.8,0.4-6.9,1.1
	c-2.1,0.6-4,1.4-5.9,2.3c-3.8,1.6-7.4,3.2-12,3.2c-4.7,0-8.2-1.5-12-3.2c-1.9-0.8-3.8-1.6-5.9-2.3c-2.1-0.6-4.4-1.1-6.9-1.1
	c-2.5,0-4.8,0.4-6.9,1.1c-2.1,0.6-4,1.4-5.9,2.3c-3.8,1.6-7.4,3.2-12,3.2c-4.7,0-8.2-1.5-12-3.2c-1.9-0.8-3.8-1.6-5.9-2.3
	C334.8,0.4,332.5,0,330,0c-2.5,0-4.8,0.4-6.9,1.1c-2.1,0.6-4,1.4-5.9,2.3c-2.8,1.2-5.4,2.3-8.5,2.9c-0.1,0-0.2,0-0.3,0.1
	c-0.4,0.1-0.9,0.1-1.3,0.2c-0.1,0-0.2,0-0.3,0c-0.5,0-1.1,0.1-1.6,0.1c-0.6,0-1.1,0-1.6-0.1c-0.1,0-0.2,0-0.3,0
	c-0.4,0-0.9-0.1-1.3-0.2c-0.1,0-0.2,0-0.3-0.1c-3.1-0.5-5.7-1.7-8.5-2.9c-1.9-0.8-3.8-1.6-5.9-2.3c-2.1-0.6-4.4-1.1-6.9-1.1
	c-2.5,0-4.8,0.4-6.9,1.1c-2.1,0.6-4,1.4-5.9,2.3c-3.8,1.6-7.4,3.2-12,3.2c-4.7,0-8.2-1.5-12-3.2c-1.9-0.8-3.8-1.6-5.9-2.3
	c-2.1-0.6-4.4-1.1-6.9-1.1s-4.8,0.4-6.9,1.1c-2.1,0.6-4,1.4-5.9,2.3c-3.8,1.6-7.4,3.2-12,3.2s-8.2-1.5-12-3.2
	c-1.9-0.8-3.8-1.6-5.9-2.3c-2.1-0.6-4.4-1.1-6.9-1.1c-2.5,0-4.8,0.4-6.9,1.1c-2.1,0.6-4,1.4-5.9,2.3c-2,0.9-4,1.7-6.1,2.3
	c-0.4,0.1-0.8,0.2-1.3,0.3c-0.1,0-0.3,0.1-0.4,0.1c-0.4,0.1-0.7,0.1-1.1,0.2c-0.2,0-0.5,0.1-0.7,0.1c-0.3,0-0.6,0.1-0.9,0.1
	c-0.5,0-1.1,0.1-1.6,0.1s-1.1,0-1.6-0.1c-0.3,0-0.6-0.1-0.9-0.1c-0.2,0-0.5,0-0.7-0.1c-0.4-0.1-0.7-0.1-1.1-0.2
	c-0.1,0-0.3-0.1-0.4-0.1c-0.4-0.1-0.8-0.2-1.3-0.3c-2.1-0.6-4.1-1.4-6.1-2.3c-1.9-0.8-3.8-1.6-5.9-2.3c-2.1-0.6-4.4-1.1-6.9-1.1
	c-2.5,0-4.8,0.4-6.9,1.1c-2.1,0.6-4,1.4-5.9,2.3c-3.8,1.6-7.4,3.2-12,3.2c-4.7,0-8.2-1.5-12-3.2c-1.9-0.8-3.8-1.6-5.9-2.3
	C86.2,0.4,83.9,0,81.3,0c-2.5,0-4.8,0.4-6.9,1.1c-2.1,0.6-4,1.4-5.9,2.3c-3.8,1.6-7.4,3.2-12,3.2c-4.7,0-8.2-1.5-12-3.2
	c-1.9-0.8-3.8-1.6-5.9-2.3C36.4,0.4,34.1,0,31.6,0c-2.5,0-4.8,0.4-6.9,1.1c-2.1,0.6-4,1.4-5.9,2.3C15,5,11.4,6.5,6.7,6.5
	c-2,0-4.6-0.4-6.7-1v2v212.4h610.3V7.5V5.4C608.2,6,605.6,6.5,603.6,6.5z"/>
</svg>
